<svg xmlns="http://www.w3.org/2000/svg" viewBox="0 0 400 600" width="400" height="600" role="img" aria-label="抽象暖身卡牌 10">
  <defs>
    <clipPath id="c10"><rect x="0" y="0" width="400" height="600" rx="26" ry="26"/></clipPath>
    <linearGradient id="sky10" x1="0" y1="0" x2="0.25" y2="1">
      <stop offset="0" stop-color="#F6E3C9"/>
      <stop offset="1" stop-color="#E8B98A"/>
    </linearGradient>
    <filter id="soft10" x="-50%" y="-50%" width="200%" height="200%">
      <feGaussianBlur stdDeviation="22"/>
    </filter>
    <filter id="grain10">
      <feTurbulence type="fractalNoise" baseFrequency="0.9" numOctaves="3" seed="10"/>
      <feColorMatrix type="saturate" values="0"/>
    </filter>
  </defs>
  <g clip-path="url(#c10)">
    <rect width="400" height="600" fill="url(#sky10)"/>
    <circle cx="129.1" cy="210.5" r="161.7" fill="#FFF3DF" opacity="0.18" filter="url(#soft10)"/>
    <circle cx="129.1" cy="210.5" r="77.0" fill="#FFF3DF" opacity="0.9"/>
    <circle cx="77.8" cy="121.0" r="2.6" fill="#FFF3DF" opacity="0.63"/>
    <circle cx="288.8" cy="256.6" r="1.5" fill="#FFF3DF" opacity="0.50"/>
    <circle cx="59.0" cy="331.3" r="2.6" fill="#FFF3DF" opacity="0.55"/>
    <circle cx="393.2" cy="14.3" r="4.6" fill="#FFF3DF" opacity="0.41"/>
    <circle cx="397.3" cy="331.8" r="2.6" fill="#FFF3DF" opacity="0.33"/>
    <circle cx="213.3" cy="225.7" r="3.2" fill="#FFF3DF" opacity="0.45"/>
    <circle cx="129.6" cy="12.5" r="4.5" fill="#FFF3DF" opacity="0.39"/>
    <circle cx="82.4" cy="165.9" r="1.7" fill="#FFF3DF" opacity="0.32"/>
    <circle cx="67.0" cy="418.4" r="60.0" fill="none" stroke="#C6743F" stroke-width="1.8" opacity="0.24"/>
    <circle cx="67.0" cy="418.4" r="87.5" fill="none" stroke="#C6743F" stroke-width="1.1" opacity="0.31"/>
    <circle cx="67.0" cy="418.4" r="154.3" fill="none" stroke="#C6743F" stroke-width="1.4" opacity="0.31"/>
    <circle cx="67.0" cy="418.4" r="144.0" fill="none" stroke="#C6743F" stroke-width="1.4" opacity="0.30"/>
    <circle cx="67.0" cy="418.4" r="193.3" fill="none" stroke="#C6743F" stroke-width="1.2" opacity="0.15"/>
    <circle cx="67.0" cy="418.4" r="258.9" fill="none" stroke="#C6743F" stroke-width="1.2" opacity="0.15"/>
    <path d="M -20 620 L -20 325.0 Q 30.0 258.5 80.0 336.0 Q 130.0 268.5 180.0 344.6 Q 230.0 274.6 280.0 280.2 Q 330.0 213.3 380.0 368.4 Q 430.0 300.0 480.0 330.3 L 420 620 Z" fill="#8C5A3C" opacity="0.32"/>
    <path d="M 110.9 339.8 Q 110.9 339.8 105.8 348.2 Q 100.7 356.7 92.6 359.2 Q 84.5 361.7 75.3 363.2 Q 66.2 364.7 59.4 357.4 Q 52.6 350.0 54.2 340.4 Q 55.8 330.8 60.9 322.6 Q 65.9 314.4 75.4 314.7 Q 85.0 315.1 91.6 320.0 Q 98.3 324.9 104.6 332.4 Z" fill="#C6743F" opacity="0.59"/>
    <path d="M 270.7 337.8 Q 270.7 337.8 265.2 354.2 Q 259.6 370.6 245.5 384.9 Q 231.4 399.3 212.3 392.2 Q 193.2 385.1 181.6 370.6 Q 169.9 356.2 168.5 337.3 Q 167.1 318.3 180.3 304.7 Q 193.6 291.1 212.2 285.4 Q 230.8 279.7 247.1 290.7 Q 263.4 301.8 267.1 319.8 Z" fill="#C6743F" opacity="0.79"/>
    <path d="M -20 620 L -20 388.4 Q 30.0 363.0 80.0 420.9 Q 130.0 405.9 180.0 385.2 Q 230.0 369.6 280.0 381.7 Q 330.0 366.6 380.0 401.9 Q 430.0 363.9 480.0 396.5 L 420 620 Z" fill="#8C5A3C" opacity="0.92"/>
    <path d="M 19.1 433.7 Q 200.0 418.1 296.4 433.7" fill="none" stroke="#FFF3DF" stroke-width="1.4" opacity="0.26"/>
    <path d="M 121.3 499.2 Q 200.0 483.1 297.0 499.2" fill="none" stroke="#FFF3DF" stroke-width="1.4" opacity="0.11"/>
    <path d="M 35.5 504.5 Q 200.0 479.2 361.6 504.5" fill="none" stroke="#FFF3DF" stroke-width="1.4" opacity="0.19"/>
    <path d="M 22.5 476.8 Q 200.0 445.3 306.6 476.8" fill="none" stroke="#FFF3DF" stroke-width="1.4" opacity="0.12"/>
    <rect width="400" height="600" filter="url(#grain10)" opacity="0.16" style="mix-blend-mode:multiply"/>
  </g>
  <rect x="1.5" y="1.5" width="397" height="597" rx="25" ry="25" fill="none" stroke="#00000018" stroke-width="3"/>
</svg>
